Coordinates
version=1
nRows=27
nColumns=12
inDegrees=yes

Units are S.I. units (second, meters, Newtons, ...)
Angles are in degrees

endheader
time	SC_y	SC_z	SC_x	AC_y	AC_z	AC_x	GH_y	GH_z	GH_yy	EL_x	PS_y
       0.0              -46.69         0.8813          29.27          32.24          -10.3         -9.477         -172.9          38.71          65.98          47.96          142.8
   0.01447              -46.69         0.8865          29.27          32.24         -10.29         -9.475         -172.9          38.71          65.96          47.96          142.8
   0.02895              -46.69         0.8921          29.27          32.24         -10.29         -9.473         -172.9          38.71          65.93          47.97          142.8
   0.04342              -46.69          0.898          29.28          32.25         -10.29         -9.471         -172.9          38.71           65.9          47.98          142.8
   0.05789              -46.69         0.9043          29.28          32.25         -10.29         -9.469         -172.9          38.71          65.87          47.99          142.8
   0.07236              -46.68          0.911          29.29          32.25         -10.28         -9.466         -172.8          38.71          65.84           48.0          142.8
   0.08684              -46.68         0.9182           29.3          32.26         -10.28         -9.464         -172.8          38.71          65.81          48.01          142.8
    0.1013              -46.68         0.9259           29.3          32.26         -10.28         -9.461         -172.8          38.71          65.77          48.02          142.8
    0.1158              -46.68         0.9341          29.31          32.26         -10.27         -9.458         -172.8          38.72          65.73          48.03          142.8
    0.1303              -46.67         0.9429          29.31          32.27         -10.27         -9.455         -172.8          38.72          65.69          48.05          142.8
    0.1447              -46.67         0.9524          29.32          32.27         -10.27         -9.451         -172.8          38.72          65.64          48.06          142.8
    0.1592              -46.67         0.9625          29.33          32.28         -10.26         -9.448         -172.7          38.72           65.6          48.08          142.8
    0.1737              -46.66         0.9735          29.34          32.28         -10.26         -9.444         -172.7          38.72          65.54          48.09          142.8
    0.1881              -46.66         0.9854          29.35          32.29         -10.25         -9.439         -172.7          38.72          65.49          48.11          142.8
    0.2026              -46.65         0.9982          29.36          32.29         -10.25         -9.435         -172.6          38.72          65.43          48.13          142.8
    0.2171              -46.65          1.012          29.37           32.3         -10.24          -9.43         -172.6          38.72          65.36          48.15          142.7
    0.2316              -46.64          1.027          29.38           32.3         -10.24         -9.424         -172.6          38.72          65.29          48.17          142.7
     0.246              -46.64          1.044          29.39          32.31         -10.23         -9.418         -172.5          38.73          65.21           48.2          142.7
    0.2605              -46.63          1.062          29.41          32.32         -10.22         -9.412         -172.5          38.73          65.12          48.23          142.7
     0.275              -46.63          1.081          29.42          32.33         -10.22         -9.405         -172.4          38.73          65.03          48.25          142.7
    0.2895              -46.62          1.103          29.44          32.34         -10.21         -9.397         -172.4          38.73          64.93          48.29          142.7
    0.3039              -46.61          1.127          29.46          32.35          -10.2         -9.388         -172.3          38.73          64.81          48.32          142.7
    0.3184               -46.6          1.153          29.48          32.36         -10.19         -9.379         -172.3          38.73          64.69          48.36          142.7
    0.3329              -46.59          1.182           29.5          32.37         -10.18         -9.368         -172.2          38.74          64.55          48.41          142.6
    0.3473              -46.58          1.215          29.53          32.39         -10.16         -9.357         -172.1          38.74          64.39          48.45          142.6
    0.3618              -46.57          1.251          29.56          32.41         -10.15         -9.343         -172.0          38.74          64.22          48.51          142.6
    0.3763              -46.56          1.291          29.59          32.42         -10.13         -9.329         -171.9          38.75          64.03          48.57          142.6
